PathFileType	4	(X/Y/Z)	Patient4_TMGait_0pt8_01_left_46.trc.trc
DataRate	CameraRate	NumFrames	NumMarkers	Units	OrigDataRate	OrigDataStartFrame	OrigNumFrames
89.171974522293	89.171974522293	5	33	mm	89.171974522293	124	       141
Frame#	Time	Sacral			L.Shoulder			Chest			R.Shoulder			Neck			R.ASIS			L.ASIS			R.Thigh.Superior			R.Thigh.Lateral			R.Thigh.Inferior			R.Patella			L.Thigh.Superior			L.Thigh.Lateral			L.Thigh.Inferior			L.Patella			L.Shank.Superior			L.Shank.Lateral			L.Shank.Inferior			R.Shank.Superior			R.Shank.Lateral			R.Shank.Inferior			R.Heel			R.Midfoot.Superior			R.Midfoot.Lateral			R.Toe			L.Heel			L.Midfoot.Lateral			L.Midfoot.Superior			L.Toe			L.Elbow			L.Wrist			R.Elbow			R.Wrist			
		X1	Y1	Z1	X2	Y2	Z2	X3	Y3	Z3	X4	Y4	Z4	X5	Y5	Z5	X6	Y6	Z6	X7	Y7	Z7	X8	Y8	Z8	X9	Y9	Z9	X10	Y10	Z10	X11	Y11	Z11	X12	Y12	Z12	X13	Y13	Z13	X14	Y14	Z14	X15	Y15	Z15	X16	Y16	Z16	X17	Y17	Z17	X18	Y18	Z18	X19	Y19	Z19	X20	Y20	Z20	X21	Y21	Z21	X22	Y22	Z22	X23	Y23	Z23	X24	Y24	Z24	X25	Y25	Z25	X26	Y26	Z26	X27	Y27	Z27	X28	Y28	Z28	X29	Y29	Z29	X30	Y30	Z30	X31	Y31	Z31	X32	Y32	Z32	X33	Y33	Z33	

124	52.589357142857	874.462286775991	998.122605045578	522.525434487377	1035.498286100820	1419.103496121006	324.709169868174	1160.897417520041	1343.440709387269	466.493738071635	1110.309069489234	1420.084836686969	650.683099632201	1044.410650371641	1477.127716647349	482.165059186653	1105.670905654053	923.372434554314	614.488115372860	1065.812026517999	941.651720578814	341.493489670316	1087.481748354011	709.420968739436	593.079044992274	976.545518563507	624.293877904435	659.295756338955	1028.045706419927	553.656311172374	578.778473985749	1003.382426122576	469.854450941749	585.192690922693	1141.739401896450	762.342851559757	371.384117074559	1090.631586486047	631.345039013625	297.876505536319	1199.441530459772	577.373587610404	354.921628283492	1227.129974525200	514.617785946363	352.453583924565	1214.493016252024	442.235272306714	343.167246569004	1154.104410592736	306.725129381302	301.578184695309	1252.519466475171	216.121093458150	351.554518977262	959.669466739594	389.355538256827	593.615975850927	872.212608459336	299.768278290277	656.980698775261	895.888293429723	198.977858538687	594.232055714194	741.494606735853	44.193718591181	560.549851946225	910.804575346385	96.506347739009	605.136563554418	820.234905855848	37.070176393521	639.679613239762	1028.828411452698	41.905563812787	641.235449843628	1183.780502412586	37.720950195497	399.315025201463	1252.774721612035	42.588285129521	314.813497761528	1323.245740626740	119.752606049837	331.429488341399	1455.568510711434	90.561806133352	298.139913747103	857.235497572216	1113.755303811604	251.732095023097	782.167492474082	865.577772492608	269.591421204223	1294.395498618548	1137.889757662845	747.396905423421	1517.122739026501	1233.120519626433	671.880065301620	
125	52.600571428571	875.927317809079	996.320665768325	519.843023712713	1035.877620941395	1417.368830989315	322.080308180913	1161.437174418752	1342.319612813707	464.033877680191	1110.286640401359	1419.078219034806	648.011106580172	1044.671998876051	1475.636137994896	479.408851312265	1107.090844175516	921.519306231548	612.249093760662	1067.850032880380	940.259745722290	339.343105202902	1088.611296678211	707.392207281382	590.870849948215	977.297877255729	622.503204278977	656.979925489853	1028.713686441509	551.430759560756	576.632750466827	1003.195083438274	466.833575460521	582.995822075951	1144.337451352301	760.594718564632	369.300333701037	1091.492863273534	629.406231962348	297.456343123686	1200.432208158643	575.531330501026	354.118465812572	1226.711748115465	511.753758058050	352.641930854393	1213.751626481355	439.105357571404	343.279020798127	1151.773914773590	304.320091493984	302.148825882376	1248.655327788823	212.782415310706	352.826568466184	957.671162050533	387.023847826779	591.734323768522	868.466805032621	299.509020460221	655.708929492377	889.667044119639	198.059598331689	593.382159810756	732.472564167653	45.053697011569	560.807974140823	902.151557871485	96.521172016705	604.990070238490	811.325388492518	37.407409426670	639.769307469804	1019.977211591370	41.422689701242	641.345468288784	1176.314960590855	37.315719852083	401.423848891158	1244.615329962519	40.748485422395	316.159262618596	1317.640550257784	115.100585777227	333.070705436588	1448.844436245900	81.731985401024	298.318900074445	857.318374857734	1112.367916680445	249.975324444205	781.140515506558	864.577640321465	267.833003697843	1296.586272755411	1138.796407819256	744.141611170983	1515.203473441680	1241.256781967038	668.054187006710	
126	52.611785714286	877.331880059250	994.602330343744	517.084737296306	1036.298744116947	1415.690689775368	319.363038401243	1161.999991298506	1341.322880426601	461.533074668895	1110.230111896552	1418.163438958175	645.332819290245	1044.971472412859	1474.273086561133	476.575251008574	1108.531161655795	919.770285738088	609.932891379335	1069.926250187053	939.104380585221	337.159400796612	1090.032985373117	705.482153451267	588.556468407354	978.469860867248	620.664737367825	654.503684814967	1030.014561815627	549.193739934185	574.384853302771	1003.729652928943	463.605076935077	580.792597576328	1147.312165812291	759.385733568914	367.255813178123	1093.133721391404	628.143278685006	296.715168679258	1202.071227978199	574.301003041873	353.251718607290	1226.926144546755	509.380971291036	352.664433022458	1213.557957496359	436.374793099307	343.212897055504	1149.897791363859	302.528032292657	301.928982494224	1244.603542257037	209.713538206019	353.770539600247	956.172246539541	384.673247967338	589.840060233131	865.048699288889	299.453219071703	654.376076381925	883.699227936086	197.324610913534	592.556805918436	723.479789164023	46.440530439898	561.123161362861	893.666054039976	96.576723433672	604.894860529336	802.440723878462	38.015666679524	639.878203372242	1011.127823292596	40.891832776785	641.458850374444	1167.878355930530	37.170644714472	402.898012189845	1235.687921922244	39.179909519415	317.027305011270	1311.271461045461	110.724417631770	334.418858428079	1441.394053922514	73.155285645069	298.527387826010	858.250939286398	1110.428448732655	247.856865384913	781.482813053387	862.848338033706	265.582937865394	1298.056879863841	1139.100595353344	741.046804881219	1512.709579350388	1248.029638092358	664.431356807782	
127	52.623000000000	878.638941813892	993.049201084753	514.290743535182	1036.769838445525	1414.136893175722	316.583728871888	1162.583772474697	1340.486044879364	459.010862606236	1110.182050078269	1417.397292658967	642.667290395464	1045.326402146472	1473.105266034865	473.697311226874	1109.940827865385	918.203960144108	607.543336876615	1071.965421789955	938.243832977223	334.937127776220	1091.724473075228	703.773981120143	586.132112976841	980.097160610153	618.833527881910	651.890565566682	1032.001788275853	547.023332068174	572.043105110420	1005.083676764389	460.229836833378	578.653674820861	1150.520833074714	758.774834070327	365.256838486115	1095.465946153043	627.602821247110	295.581557228665	1204.231277556876	573.692746587389	352.248431953042	1227.711324144607	507.592726861108	352.415492217197	1213.871479895811	434.140963483458	342.914585523730	1148.526928302630	301.389885327975	300.914505911235	1240.505980314624	207.055520306618	354.349865874300	955.255185698536	382.379836979089	587.992154426881	862.026801695456	299.708774090019	653.010087777638	878.073045851275	196.872571377094	591.788791717165	714.587501452412	48.547110627723	561.479150702243	885.429163300862	96.695082167895	604.863949164264	793.617485615639	39.011924494158	639.994001331522	1002.274108899491	40.311954918012	641.567142684880	1158.909700300739	37.230608482997	403.751097425095	1226.429450698260	37.935892068471	317.445792760869	1304.371087535209	106.890947001730	335.429214022177	1433.513704821155	65.457966144395	298.750338918161	860.039328798183	1107.993948360311	245.389337065653	783.211342388813	860.436605044727	262.853945626389	1298.772209855220	1138.763099967031	738.139519758254	1509.702743129554	1253.416220581998	661.021698189610	
128	52.634214285714	879.823114044651	991.741258713362	511.488283442018	1037.292571668865	1412.783157182406	313.772705914546	1163.179557152495	1339.849460186713	456.489493528941	1110.174065267043	1416.841506568107	640.030724581597	1045.741861257751	1472.198997582605	470.809828489773	1111.268803940822	916.902272506317	605.082992654499	1073.905268403119	937.724019376923	332.662492725950	1093.672163940656	702.355305717413	583.594224324527	982.231047620124	617.069219072483	649.172094459433	1034.744929793076	545.004597470071	569.625209442235	1007.370111076173	456.788097574836	576.657500528733	1153.804521791084	758.773953904349	363.284664409993	1098.317151417887	627.757033850373	294.039141982183	1206.718070762483	573.651478238321	351.044806692302	1228.927634825122	506.402972060816	351.825757497747	1214.557235628544	432.427969038057	342.363099023490	1147.561317848785	300.878897735161	299.215719566802	1236.389789046941	204.878770698182	354.579936221591	955.032657332770	380.222419369349	586.252174215436	859.504272422532	300.388849493450	651.637259161867	872.907495796429	196.809720000077	591.107664746510	705.904634531763	51.584763787010	561.843268473768	877.543009809300	96.914968541894	604.905578207099	784.916022239080	40.536261220292	640.095404966223	993.414835353588	39.684208572527	641.660405285282	1149.731012018234	37.427105873752	404.062789184005	1217.133271869953	37.031051771909	317.486922219303	1297.085768337661	103.768600025427	336.104212552416	1425.392520666103	59.079485845273	298.960271762645	862.685319807418	1105.153324230979	242.591024199391	786.357216237810	857.423553388835	259.666565213332	1298.675687895523	1137.774176231150	735.437691889283	1506.234488110176	1257.384421102257	657.835073403281	
